<?xml version="1.0" encoding="UTF-8"?>
<!DOCTYPE svg PUBLIC "-//W3C//DTD SVG 1.1//EN" "http://www.w3.org/Graphics/SVG/1.1/DTD/svg11.dtd">
<!-- Creator: CorelDRAW X7 -->
<svg xmlns="http://www.w3.org/2000/svg" xml:space="preserve" width="300px" height="300px" version="1.1" style="shape-rendering:geometricPrecision; text-rendering:geometricPrecision; image-rendering:optimizeQuality; fill-rule:evenodd; clip-rule:evenodd"
viewBox="0 0 300 300"
 xmlns:xlink="http://www.w3.org/1999/xlink"
 enable-background="new 0 0 48 48">
 <defs>
  <style type="text/css">
   <![CDATA[
    .str0 {stroke:black;stroke-width:0.9}
    .fil0 {fill:white}
   ]]>
  </style>
 </defs>
 <g id="Camada_x0020_1">
  <metadata id="CorelCorpID_0Corel-Layer"/>
  <g id="interrogação.svg">
   <g id="Layer_3">
    <g>
     <path class="fil0 str0" d="M131 157c-3,0 -5,1 -7,2 -1,2 -2,4 -2,7 0,2 1,4 2,6 2,1 4,2 7,2 2,0 4,-1 6,-2 1,-2 2,-4 2,-6 0,-3 -1,-5 -2,-6 -1,-2 -4,-3 -6,-3z"/>
     <path class="fil0 str0" d="M150 105c-4,-3 -10,-5 -16,-5 -9,0 -16,2 -24,6l6 11c6,-3 12,-5 17,-5 2,0 5,1 6,2 2,1 2,2 2,5 0,1 0,3 -1,5 -1,1 -4,3 -7,6 -4,2 -6,5 -7,7 -2,2 -2,5 -2,8l0 4 13 0 0 -3c0,-2 0,-4 1,-5 1,-1 3,-3 6,-5 4,-3 8,-6 9,-9 2,-3 3,-6 3,-9 0,-6 -2,-10 -6,-13z"/>
     <path class="fil0 str0" d="M133 62c-41,0 -75,34 -75,75 0,41 34,75 75,75 41,0 75,-34 75,-75 0,-41 -34,-75 -75,-75zm0 138c-35,0 -62,-28 -62,-63 0,-35 27,-63 62,-63 35,0 63,28 63,63 0,35 -28,63 -63,63z"/>
    </g>
   </g>
  </g>
 </g>
</svg>
