<?xml version="1.0" encoding="UTF-8"?>
<!DOCTYPE svg PUBLIC "-//W3C//DTD SVG 1.1//EN" "http://www.w3.org/Graphics/SVG/1.1/DTD/svg11.dtd">
<!-- Creator: CorelDRAW X7 -->
<svg xmlns="http://www.w3.org/2000/svg" xml:space="preserve" width="282px" height="277px" version="1.1" style="shape-rendering:geometricPrecision; text-rendering:geometricPrecision; image-rendering:optimizeQuality; fill-rule:evenodd; clip-rule:evenodd"
viewBox="0 0 73 72"
 xmlns:xlink="http://www.w3.org/1999/xlink">
 <defs>
  <style type="text/css">
   <![CDATA[
    .fil0 {fill:white}
   ]]>
  </style>
 </defs>
 <g id="Camada_x0020_1">
  <metadata id="CorelCorpID_0Corel-Layer"/>
  <g id="RETORNE.svg">
   <g id="Layer_2" data-name="Layer 2">
    <path class="fil0" d="M73 40c-2,-14 -14,-25 -29,-25 0,0 0,0 0,0l-37 0 8 -11c0,-1 1,-1 1,-2 0,0 -1,-1 -1,-2 -1,0 -1,0 -2,0 -1,0 -1,0 -2,1l-11 15c0,0 0,1 0,1 0,1 0,1 0,2l11 15c1,0 1,1 2,1 1,0 2,-2 2,-3 0,0 0,-1 0,-1l-8 -11 37 0c0,0 0,0 0,0 13,0 23,9 24,21 0,1 0,1 0,2 0,12 -10,23 -23,23l-43 0c-1,0 -2,1 -2,2 0,2 1,3 2,3l43 0c0,0 0,0 0,0 15,0 28,-13 28,-28 0,-1 0,-2 0,-3l0 0z"/>
    <path class="fil0" d="M11 35l-11 -15c0,-1 0,-1 0,-2 0,0 0,0 0,-1l11 -15c1,-1 1,-1 2,-1 1,0 1,0 2,0l0 0c0,1 1,2 1,2 0,1 -1,1 -1,2l-10 13 10 14c0,0 1,1 1,1 0,1 -1,2 -1,2l0 0c-1,1 -1,1 -2,1 -1,0 -1,-1 -2,-1l0 0z"/>
    <path class="fil0" d="M44 16l-42 0c-1,0 -2,1 -2,2l0 0c0,2 1,3 2,3l42 0c0,0 0,0 0,0 13,0 23,9 24,21 0,1 0,1 0,2 0,12 -10,23 -23,23 0,0 0,0 0,0l-43 0c-1,0 -2,1 -2,2l0 0c0,2 1,3 2,3l43 0c0,0 0,0 0,0 15,0 28,-13 28,-28 0,-1 0,-2 0,-3 -2,-14 -14,-25 -29,-25 0,0 0,0 0,0l0 0z"/>
   </g>
  </g>
 </g>
</svg>
