<?xml version="1.0" encoding="UTF-8"?>
<!DOCTYPE svg PUBLIC "-//W3C//DTD SVG 1.1//EN" "http://www.w3.org/Graphics/SVG/1.1/DTD/svg11.dtd">
<!-- Creator: CorelDRAW X7 -->
<svg xmlns="http://www.w3.org/2000/svg" xml:space="preserve" width="150px" height="225px" version="1.1" style="shape-rendering:geometricPrecision; text-rendering:geometricPrecision; image-rendering:optimizeQuality; fill-rule:evenodd; clip-rule:evenodd"
viewBox="0 0 170 256"
 xmlns:xlink="http://www.w3.org/1999/xlink">
 <defs>
  <style type="text/css">
   <![CDATA[
    .fil0 {fill:white}
   ]]>
  </style>
 </defs>
 <g id="Camada_x0020_1">
  <metadata id="CorelCorpID_0Corel-Layer"/>
  <path id="SETA_x0020_DIREITA.svg" class="fil0" d="M163 111l-128 -106c-4,-3 -9,-5 -14,-5 -11,0 -21,10 -21,21 0,7 3,13 8,17l108 90 -108 90c-5,4 -8,10 -8,16 0,12 10,22 21,22 5,0 10,-2 14,-5l128 -107c5,-4 7,-10 7,-16 0,-7 -2,-13 -7,-17l0 0z"/>
 </g>
</svg>
